<svg xmlns="http://www.w3.org/2000/svg" viewBox="0 0 171.73 71.51"><defs><style>.cls-1,.cls-2,.cls-4,.cls-5,.cls-6{fill:#fff;}.cls-1,.cls-5{fill-rule:evenodd;}.cls-3{fill:none;stroke-width:0.5px;}.cls-3,.cls-4,.cls-5{stroke:#fff;}.cls-3,.cls-4,.cls-5,.cls-6{stroke-miterlimit:3.86;}.cls-4,.cls-5{stroke-linecap:square;stroke-width:0.1px;}.cls-6{stroke:#1a1a18;stroke-width:0.01px;}</style></defs><g id="Ebene_1" data-name="Ebene 1"><path class="cls-1" d="M42.3,60.66H49c-1.2-.44-1.44-1-1.92-2.32l-2-5.12-3.05-8-5.19-13.6h-5.4a1.63,1.63,0,0,1,1,1.32,10.54,10.54,0,0,1-.84,2.32l-3.85,10-3.09,8-1.78,4.6c-.64,1.68-1,2.4-2,2.84h5.72c-.8-.32-1-.68-1-1.24,0-.79,1.07-3.42,2.15-6.2.29-.74.58-1.5.85-2.24H40.18l.89,2.24a64.71,64.71,0,0,1,2.27,6.4C43.34,60,43.1,60.34,42.3,60.66ZM29.58,48.1l1.09-2.88,3.67-9.76,3.74,9.76,1.1,2.88Z" transform="translate(-2 -2.33)"/><path class="cls-1" d="M142.76,59.38l-4.08-6.16-3.76-5.68a8.17,8.17,0,0,0,5.3-2.32,7.49,7.49,0,0,0,2.1-5.36c0-6.28-5.12-8.24-10.44-8.24H120.8a1.93,1.93,0,0,1,1,2v25a1.93,1.93,0,0,1-1,2h5.92a1.93,1.93,0,0,1-1-2V48h5.2l3.44,5.2,4.92,7.44h5.16A3.38,3.38,0,0,1,142.76,59.38ZM132.57,45.22a15.93,15.93,0,0,1-1.69.08h-5.2v-11h5.2c3.6,0,7.36,1,7.36,5.48C138.24,43.63,135.56,44.91,132.57,45.22Z" transform="translate(-2 -2.33)"/><path class="cls-1" d="M117.81,56.34v4.32H98.69a1.93,1.93,0,0,0,1-2v-25a1.93,1.93,0,0,0-1-2h18.6v4.32a1.84,1.84,0,0,0-2-1.6H103.57v9.92h10.2c1.2,0,1.56-.24,2-1.24v5.2c-.44-1-.8-1.24-2-1.24h-10.2v11h12.24A1.84,1.84,0,0,0,117.81,56.34Z" transform="translate(-2 -2.33)"/><path class="cls-1" d="M96.05,31.62v4.32a1.84,1.84,0,0,0-2-1.6H87.34V58.66a1.93,1.93,0,0,0,1,2H82.46a1.93,1.93,0,0,0,1-2V34.34H76.78a1.84,1.84,0,0,0-2,1.6V31.62Z" transform="translate(-2 -2.33)"/><path class="cls-1" d="M72.3,31.62a1.93,1.93,0,0,0-1,2V50.54a23.32,23.32,0,0,1-.12,2.68c-.42,3.72-2.32,8-10.84,8s-10.46-4.28-10.88-8a23.32,23.32,0,0,1-.12-2.68V33.62a1.93,1.93,0,0,0-1-2h5.92a1.93,1.93,0,0,0-1,2V50.18a18.52,18.52,0,0,0,.21,3c.59,3.51,2.54,5.12,7.39,5.12s6.84-1.61,7.43-5.12a19.69,19.69,0,0,0,.21-3V33.62a1.93,1.93,0,0,0-1-2Z" transform="translate(-2 -2.33)"/><path class="cls-1" d="M21.19,52.9c0,.11,0,.21,0,.32-.19,5.23-5.09,8-9.95,8-4.6,0-7-1.92-7.84-1.92-.4,0-.76.28-1,1v-6.8a9.27,9.27,0,0,0,8.16,4.88c5.72,0,6.8-3.69,6.84-5.12v-.08c0-4.67-7.64-4.81-12.12-7.92A6.78,6.78,0,0,1,2.07,39.3c0-4.8,4.4-8.24,9.44-8.24,4.6,0,6.2,1.6,6.68,1.6s.68-.4.88-.8v6.92a7.74,7.74,0,0,0-7.16-4.84c-3.76,0-6,2.48-6,4.92,0,4,4.65,4.75,8.82,6.36C18.12,46.53,21.19,48.38,21.19,52.9Z" transform="translate(-2 -2.33)"/><path class="cls-1" d="M19.52,73.72h.86V70.49h.67c1.19,0,2.61-.24,2.61-2s-1.42-2-2.61-2H19.52v7.18Zm.86-6.61H21c.79,0,1.7.2,1.7,1.36S21.83,69.9,21,69.9h-.66V67.11Z" transform="translate(-2 -2.33)"/><path class="cls-1" d="M25.52,73.72h.77v-5h-.77v5Zm-.05-6.25h.87v-.93h-.87v.93Z" transform="translate(-2 -2.33)"/><path class="cls-1" d="M31.15,73.72h.77V70.31c0-.71-.16-1.66-1.62-1.66s-1.75.8-1.8,1.41h.89c0-.38.08-1,.88-1s.88.75.88,1.28V71c-.93.06-2.79.13-2.79,1.59a1.28,1.28,0,0,0,1.34,1.25A1.71,1.71,0,0,0,31.13,73h0v.69Zm0-1.76A1.28,1.28,0,0,1,30,73.32a.77.77,0,0,1-.78-.84c0-1.06,1.69-1,2-1.06V72Z" transform="translate(-2 -2.33)"/><path class="cls-2" d="M34.37,73.72h.77V71.6c0-1,.46-2.31,1.51-2.31.68,0,.68.69.68,1.23v3.2h.77V70a1.21,1.21,0,0,0-1.18-1.3A2,2,0,0,0,35.14,70h0V68.77h-.75v5Z" transform="translate(-2 -2.33)"/><path class="cls-1" d="M42.31,73.84c1.48,0,2.16-.94,2.16-2.54s-.68-2.65-2.16-2.65-2.1,1.06-2.1,2.65.62,2.54,2.1,2.54Zm-1.24-2.51c0-1.08.18-2.26,1.24-2.26s1.29,1.18,1.29,2.26-.22,2.09-1.29,2.09-1.24-1.07-1.24-2.09Z" transform="translate(-2 -2.33)"/><path class="cls-1" d="M47,73.72h.77V69.25h1.43v-.48H47.76v-.61c0-.51.08-1.15,1-1.15a2,2,0,0,1,.8.2V66.6a4.42,4.42,0,0,0-.84-.09c-1.59,0-1.74.91-1.74,1.93v.33h-.92v.48H47v4.47Z" transform="translate(-2 -2.33)"/><path class="cls-1" d="M52.67,73.84c1.48,0,2.15-.94,2.15-2.54s-.67-2.65-2.15-2.65-2.11,1.06-2.11,2.65.63,2.54,2.11,2.54Zm-1.24-2.51c0-1.08.18-2.26,1.24-2.26S54,70.25,54,71.33s-.22,2.09-1.29,2.09-1.24-1.07-1.24-2.09Z" transform="translate(-2 -2.33)"/><path class="cls-2" d="M56.93,73.72h.77V71.38c0-.91.31-1.82,1.39-1.82h.22v-.91a2,2,0,0,0-1.59,1.29h0V68.77h-.77v5Z" transform="translate(-2 -2.33)"/><path class="cls-2" d="M63.66,73.28a1.33,1.33,0,0,1-.47.06c-.85,0-.86-.58-.85-1.16V69.25h1.35v-.48H62.34V67.13l-.77.47v1.17H60.7v.48h.87v3.34c0,.89.46,1.25,1.48,1.25a3.34,3.34,0,0,0,.61,0v-.52Z" transform="translate(-2 -2.33)"/><path class="cls-1" d="M68.85,73.19a3,3,0,0,1-.91.15c-1.53,0-1.91-1.6-1.91-2.69h2.91a1.73,1.73,0,0,0-1.76-2c-1.45,0-2,1-2,2.45,0,1.82,1,2.74,2.45,2.74a3.9,3.9,0,0,0,1.23-.2v-.45Zm-2.8-3a1.1,1.1,0,0,1,1.08-1.12,1,1,0,0,1,1,1.12Z" transform="translate(-2 -2.33)"/><path class="cls-2" d="M71,73.72h.77V71.6c0-1,.39-2.31,1.28-2.31.69,0,.69.69.69,1.23v3.2h.77V71.49c0-.81.38-2.2,1.27-2.2.69,0,.69.71.69,1.1v3.33h.78V70.05c0-.82-.4-1.4-1.2-1.4-1,0-1.4,1-1.52,1.3h0a1.21,1.21,0,0,0-1.19-1.3c-.87,0-1.29.71-1.55,1.33h0V68.77H71v5Z" transform="translate(-2 -2.33)"/><path class="cls-1" d="M82.11,73.72h.77V70.31a1.44,1.44,0,0,0-1.63-1.66c-1.44,0-1.75.8-1.8,1.41h.9c0-.38.08-1,.87-1s.89.75.89,1.28V71c-.93.06-2.79.13-2.79,1.59a1.28,1.28,0,0,0,1.34,1.25A1.73,1.73,0,0,0,82.09,73h0v.69Zm0-1.76a1.28,1.28,0,0,1-1.18,1.36.76.76,0,0,1-.78-.84c0-1.06,1.69-1,2-1.06V72Z" transform="translate(-2 -2.33)"/><path class="cls-2" d="M85.32,73.72h.77V71.6c0-1,.47-2.31,1.51-2.31.69,0,.69.69.69,1.23v3.2h.77V70a1.21,1.21,0,0,0-1.19-1.3A2,2,0,0,0,86.09,70h0V68.77h-.75v5Z" transform="translate(-2 -2.33)"/><path class="cls-2" d="M94.46,73.72h.75v-5h-.77v2.12c0,1-.4,2.31-1.31,2.31-.67,0-.88-.7-.88-1.23v-3.2h-.77v3.54c0,.64.36,1.53,1.18,1.53,1,0,1.3-.3,1.78-1.33h0v1.21Z" transform="translate(-2 -2.33)"/><path class="cls-1" d="M98.13,73.72h.77V69.25h1.44v-.48H98.9v-.61c0-.51.08-1.15,1-1.15a2,2,0,0,1,.8.2V66.6a4.42,4.42,0,0,0-.84-.09c-1.59,0-1.74.91-1.74,1.93v.33h-.92v.48h.92v4.47Z" transform="translate(-2 -2.33)"/><path class="cls-1" d="M104.46,73.72h.77V70.31a1.44,1.44,0,0,0-1.63-1.66c-1.45,0-1.75.8-1.8,1.41h.9c0-.38.08-1,.87-1s.89.75.89,1.28V71c-.93.06-2.79.13-2.79,1.59A1.28,1.28,0,0,0,103,73.84a1.69,1.69,0,0,0,1.42-.81h0v.69Zm0-1.76a1.29,1.29,0,0,1-1.18,1.36.76.76,0,0,1-.78-.84c0-1.06,1.68-1,2-1.06V72Z" transform="translate(-2 -2.33)"/><polygon class="cls-1" points="105.67 71.4 106.44 71.4 106.44 68.83 106.46 68.83 108.41 71.4 109.39 71.4 107.23 68.64 109.16 66.44 108.26 66.44 106.44 68.6 106.44 64.21 105.67 64.21 105.67 71.4 105.67 71.4"/><path class="cls-2" d="M115.57,73.28a1.42,1.42,0,0,1-.47.06c-.85,0-.87-.58-.85-1.16V69.25h1.35v-.48h-1.35V67.13l-.78.47v1.17h-.87v.48h.87v3.34c0,.89.46,1.25,1.48,1.25a3.44,3.44,0,0,0,.62,0v-.52Z" transform="translate(-2 -2.33)"/><path class="cls-2" d="M120.38,73.72h.75v-5h-.77v2.12c0,1-.4,2.31-1.31,2.31-.66,0-.88-.7-.88-1.23v-3.2h-.77v3.54c0,.64.36,1.53,1.18,1.53,1,0,1.3-.3,1.78-1.33h0v1.21Z" transform="translate(-2 -2.33)"/><path class="cls-2" d="M123.63,73.72h.77V71.38c0-.91.32-1.82,1.4-1.82H126v-.91a2,2,0,0,0-1.6,1.29h0V68.77h-.77v5Z" transform="translate(-2 -2.33)"/><path class="cls-3" d="M127.44,70.75h16.2M2,70.75H17.23" transform="translate(-2 -2.33)"/><path class="cls-1" d="M142,9.31a6.2,6.2,0,0,0,.85-.46v5.51c0,.25-.07.32-.22.39h.93c-.15-.07-.21-.14-.21-.39V8.2h-.29a4.46,4.46,0,0,1-1.06.71v.4Z" transform="translate(-2 -2.33)"/><path class="cls-1" d="M147.34,8.15a1.77,1.77,0,0,0-1.94,1.72,1.36,1.36,0,0,0,1.22,1.4v0a1.74,1.74,0,0,0-1.56,1.77c0,.87.72,1.82,2.28,1.82s2.27-1,2.27-1.82a1.74,1.74,0,0,0-1.56-1.77v0a1.36,1.36,0,0,0,1.22-1.4,1.76,1.76,0,0,0-1.93-1.72Zm0,3.33A1.55,1.55,0,1,1,145.56,13a1.58,1.58,0,0,1,1.78-1.53Zm0-3a1.34,1.34,0,1,1-1.44,1.33,1.37,1.37,0,0,1,1.44-1.33Z" transform="translate(-2 -2.33)"/><path class="cls-1" d="M166.17,9.31a6.2,6.2,0,0,0,.85-.46v5.51c0,.25-.06.32-.22.39h.93c-.15-.07-.21-.14-.21-.39V8.2h-.29a4.27,4.27,0,0,1-1.06.71v.4Z" transform="translate(-2 -2.33)"/><path class="cls-1" d="M169.52,14.27a2,2,0,0,0,1.59.61c1.84,0,2.62-2,2.62-3.57,0-1.8-.8-3.16-2.33-3.16a2.11,2.11,0,0,0-2.15,2.16,2,2,0,0,0,2,2,2.57,2.57,0,0,0,1.94-.87h0c0,1.66-.9,3.14-2.13,3.14a1.8,1.8,0,0,1-1.58-1.11v.84Zm1.83-5.79c1.12,0,1.8,1.08,1.88,2.43a2.47,2.47,0,0,1-1.91,1,1.57,1.57,0,0,1-1.57-1.6,1.7,1.7,0,0,1,1.6-1.8Z" transform="translate(-2 -2.33)"/><path class="cls-4" d="M154.22,11.56c-.42-.31-3.38-2.07-3.38-5a3.91,3.91,0,0,1,4-4.06,3.53,3.53,0,0,1,3.62,3.58,3.23,3.23,0,0,1-2.71,3c-1.92.15-2.82-1-2.81-2.32a2.05,2.05,0,0,1,2-2.19c.56,0,.91.27.91.8a.52.52,0,0,1-.55.54.44.44,0,0,1-.5-.44A.61.61,0,0,1,155.2,5c.18-.06.12-.12-.13-.12a1.92,1.92,0,0,0-2,2c0,1.8,1.94,2,2.63,1.93a3.15,3.15,0,0,0,2.51-2.71c0-1.3-.93-3-3.4-3.14A3.62,3.62,0,0,0,151,6.58c.06.9.33,2.88,3.46,4.74,3.41,2,4.06,2.48,4.45,2.76A3.09,3.09,0,0,1,160,16.83a2.87,2.87,0,0,1-2.35,2.84c-.9.11-2.4-.52-2.47-1.62a.55.55,0,0,1,.51-.66.49.49,0,0,1,.59.46.56.56,0,0,1-.76.58c.14.59,1.31.95,2.08.87a2.52,2.52,0,0,0,2.21-2.48,2.67,2.67,0,0,0-1.15-2.63c-1.58-1-1.95-1.16-4.45-2.63Z" transform="translate(-2 -2.33)"/><path class="cls-4" d="M153.08,12.67s-.11-1.06-1-1.06a.87.87,0,0,0-.91.83c0,.08,0,.92.79.93a.92.92,0,0,0,.31,0c.05-.08.07-.16.05-.15-.39.1-1.09,0-1.06-.75a.74.74,0,0,1,.81-.64.93.93,0,0,1,.93,1l.09-.17Z" transform="translate(-2 -2.33)"/><path class="cls-4" d="M161.61,15.36a3.18,3.18,0,0,0,1.23-2.76c-.28-2.14-2.49-3.49-4.55-3.49s-5.88,1.72-6,6.71a6.67,6.67,0,0,0,6.33,7.06c4.59,0,7.14-3.11,7.16-5.79,0-3.41-2.19-4.79-3.92-4.8a4,4,0,0,0-3.95,4.15c-.05,2.85,1.84,3.65,3,3.58a1.89,1.89,0,0,0,2-1.73c0-.93-.61-1.33-1.1-1.33a.56.56,0,0,0-.6.52.49.49,0,0,0,.46.51c.59,0,.59-.66.59-.66.31.07.49.37.49,1s-.91,1.32-1.84,1.36-2.66-.54-2.71-3.18a3.75,3.75,0,0,1,3.67-3.69c1.61,0,3.74,1.09,3.75,4.31s-3.39,5.29-7,5.29a6.37,6.37,0,0,1-6.12-6.48,6,6,0,0,1,2-4.71,5.31,5.31,0,0,1,3.75-1.67c1.77,0,4.11,1.12,4.4,3.07a3.48,3.48,0,0,1-1,2.77Z" transform="translate(-2 -2.33)"/><polygon class="cls-4" points="160.6 10.04 160.83 10.11 160.87 10.6 160.56 10.52 160.6 10.04 160.6 10.04"/><path class="cls-5" d="M162.09,5.09c-.08.16-.11.33-.36.33A5.56,5.56,0,0,0,159,4.75,3.67,3.67,0,0,0,155,8.17c0,4,6.34,3,6.34,5.75,0,.56-.42,2.16-2.84,2.16a3.84,3.84,0,0,1-3.39-2v2.83c.12-.29.27-.4.43-.4a9.27,9.27,0,0,0,3.26.79c2.06,0,4.13-1.19,4.13-3.45,0-4.18-6.34-2.86-6.34-5.83a2.26,2.26,0,0,1,2.49-2,3.21,3.21,0,0,1,3,2V5.09Z" transform="translate(-2 -2.33)"/><path class="cls-6" d="M162.74,3.21c-.5,0-1,.29-.92.82a.9.9,0,0,0,.93.84,1,1,0,0,0,.93-.84c.15-.92-.54-1.71-1.7-1.7a3,3,0,0,0-2.69,3.1,3.1,3.1,0,0,0,3,3.24,3.37,3.37,0,0,0,3.52-3.25,2.4,2.4,0,0,0-.56-1.78.77.77,0,0,0-.64-.3.51.51,0,0,0-.49.49.43.43,0,0,0,.45.41c.24,0,.38-.17.47-.39,0,0,0-.1.12-.09a.34.34,0,0,1,.25.2,1.64,1.64,0,0,1,.22.6,1.94,1.94,0,0,1,0,.86,3.16,3.16,0,0,1-3.38,2.85,2.92,2.92,0,0,1-2.92-2.85,2.74,2.74,0,0,1,2.6-2.8c1,0,1.34.37,1.5.69a.94.94,0,0,1,.13.64,1,1,0,0,1-.91.74c-.4,0-.81-.27-.8-.66s.13-.53.8-.63l.05-.19Z" transform="translate(-2 -2.33)"/><path class="cls-6" d="M154.22,11.56c-.42-.31-3.38-2.07-3.38-5a3.91,3.91,0,0,1,4-4.06,3.53,3.53,0,0,1,3.62,3.58,3.23,3.23,0,0,1-2.71,3c-1.92.15-2.82-1-2.81-2.32a2.05,2.05,0,0,1,2-2.19c.56,0,.91.27.91.8a.52.52,0,0,1-.55.54.44.44,0,0,1-.5-.44A.61.61,0,0,1,155.2,5c.18-.06.12-.12-.13-.12a1.92,1.92,0,0,0-2,2c0,1.8,1.94,2,2.63,1.93a3.15,3.15,0,0,0,2.51-2.71c0-1.3-.93-3-3.4-3.14A3.62,3.62,0,0,0,151,6.58c.06.9.33,2.88,3.46,4.74,3.41,2,4.06,2.48,4.45,2.76A3.09,3.09,0,0,1,160,16.83a2.87,2.87,0,0,1-2.35,2.84c-.9.11-2.4-.52-2.47-1.62a.55.55,0,0,1,.51-.66.49.49,0,0,1,.59.46.56.56,0,0,1-.76.58c.14.59,1.31.95,2.08.87a2.52,2.52,0,0,0,2.21-2.48,2.67,2.67,0,0,0-1.15-2.63c-1.58-1-1.95-1.16-4.45-2.63Z" transform="translate(-2 -2.33)"/><path class="cls-6" d="M153.08,12.67s-.11-1.06-1-1.06a.87.87,0,0,0-.91.83c0,.08,0,.92.79.93a.92.92,0,0,0,.31,0c.05-.08.07-.16.05-.15-.39.1-1.09,0-1.06-.75a.74.74,0,0,1,.81-.64.93.93,0,0,1,.93,1l.09-.17Z" transform="translate(-2 -2.33)"/><path class="cls-6" d="M161.61,15.36a3.18,3.18,0,0,0,1.23-2.76c-.28-2.14-2.49-3.49-4.55-3.49s-5.88,1.72-6,6.71a6.67,6.67,0,0,0,6.33,7.06c4.59,0,7.14-3.11,7.16-5.79,0-3.41-2.19-4.79-3.92-4.8a4,4,0,0,0-3.95,4.15c-.05,2.85,1.84,3.65,3,3.58a1.89,1.89,0,0,0,2-1.73c0-.93-.61-1.33-1.1-1.33a.56.56,0,0,0-.6.52.49.49,0,0,0,.46.51c.59,0,.59-.66.59-.66.31.07.49.37.49,1s-.91,1.32-1.84,1.36-2.66-.54-2.71-3.18a3.75,3.75,0,0,1,3.67-3.69c1.61,0,3.74,1.09,3.75,4.31s-3.39,5.29-7,5.29a6.37,6.37,0,0,1-6.12-6.48,6,6,0,0,1,2-4.71,5.31,5.31,0,0,1,3.75-1.67c1.77,0,4.11,1.12,4.4,3.07a3.48,3.48,0,0,1-1,2.77Z" transform="translate(-2 -2.33)"/><polygon class="cls-6" points="160.6 10.04 160.83 10.11 160.87 10.6 160.56 10.52 160.6 10.04 160.6 10.04"/><path class="cls-1" d="M162.09,5.09c-.08.16-.11.33-.36.33A5.56,5.56,0,0,0,159,4.75,3.67,3.67,0,0,0,155,8.17c0,4,6.34,3,6.34,5.75,0,.56-.42,2.16-2.84,2.16a3.84,3.84,0,0,1-3.39-2v2.83c.12-.29.27-.4.43-.4a9.27,9.27,0,0,0,3.26.79c2.06,0,4.13-1.19,4.13-3.45,0-4.18-6.34-2.86-6.34-5.83a2.26,2.26,0,0,1,2.49-2,3.21,3.21,0,0,1,3,2V5.09Z" transform="translate(-2 -2.33)"/></g></svg>